<?xml version="1.0" standalone="no"?>
<!DOCTYPE svg PUBLIC "-//W3C//DTD SVG 20010904//EN"
 "http://www.w3.org/TR/2001/REC-SVG-20010904/DTD/svg10.dtd">
<svg version="1.0" xmlns="http://www.w3.org/2000/svg"
 width="700.000000pt" height="700.000000pt" viewBox="0 0 700.000000 700.000000"
 preserveAspectRatio="xMidYMid meet">
<metadata>
Created by potrace 1.14, written by Peter Selinger 2001-2017
</metadata>
<g transform="translate(0.000000,700.000000) scale(0.100000,-0.100000)"
fill="#000000" stroke="none">
<path d="M3751 6074 c-281 -75 -412 -390 -266 -640 57 -97 162 -174 274 -200
44 -11 242 -14 920 -14 476 0 866 -2 869 -4 2 -3 -22 -37 -55 -78 -32 -40 -63
-79 -70 -88 -17 -21 -271 -342 -286 -360 -7 -8 -37 -47 -67 -85 -30 -39 -57
-72 -60 -75 -3 -3 -57 -70 -120 -150 -63 -80 -120 -152 -127 -160 -7 -8 -121
-152 -254 -320 -133 -168 -298 -375 -365 -460 -269 -339 -300 -378 -329 -415
-23 -30 -73 -90 -110 -133 -3 -3 -42 119 -55 173 -4 17 -30 102 -58 190 -28
88 -64 207 -82 265 -204 675 -340 1110 -360 1153 -20 43 -87 120 -135 157 -96
73 -260 97 -385 55 -59 -19 -143 -70 -177 -107 -16 -18 -239 -325 -305 -421
-20 -28 -133 -187 -166 -232 -16 -22 -222 -310 -458 -640 -552 -773 -1039
-1455 -1058 -1480 -161 -218 -341 -482 -358 -525 -24 -62 -32 -180 -17 -250
17 -79 66 -165 124 -218 145 -133 337 -157 507 -65 67 37 118 89 212 221 44
62 98 137 118 165 21 29 52 72 69 97 56 80 174 245 182 255 4 6 101 141 215
300 114 160 215 301 225 315 10 14 137 192 282 395 146 204 271 379 279 390 8
11 58 81 111 155 53 74 103 144 110 155 8 11 28 39 45 63 29 41 50 48 50 16 0
-7 9 -40 19 -71 11 -32 31 -98 46 -148 15 -49 35 -117 46 -150 10 -33 52 -172
94 -310 42 -137 92 -299 110 -360 19 -60 68 -222 111 -360 42 -137 87 -274
101 -303 13 -29 49 -77 79 -106 132 -129 319 -163 484 -88 98 44 111 60 659
752 67 85 130 164 139 175 10 11 40 49 67 85 28 36 53 67 56 70 3 3 127 158
274 345 148 187 274 345 280 352 15 18 12 15 245 308 117 149 225 284 239 301
14 17 36 44 48 60 12 16 64 82 115 146 51 64 113 142 137 172 24 31 46 54 49
51 3 -3 6 -326 7 -718 1 -708 1 -712 23 -767 48 -120 127 -202 246 -255 196
-86 447 5 544 197 54 106 52 36 52 1498 0 1275 -1 1360 -18 1421 -42 150 -164
268 -315 303 -92 22 -2725 22 -2806 0z"/>
</g>
</svg>
